<?xml version="1.0"?>
<svg xmlns="http://www.w3.org/2000/svg" xmlns:xlink="http://www.w3.org/1999/xlink" xmlns:svgjs="http://svgjs.com/svgjs" version="1.1" width="512" height="512" x="0" y="0" viewBox="0 0 217.205 217.205" style="enable-background:new 0 0 512 512" xml:space="preserve" class=""><g>
<path xmlns="http://www.w3.org/2000/svg" d="M209.705,0h-67.401H74.901H7.5C3.357,0,0,3.358,0,7.5v67.401v67.402v67.401c0,4.142,3.357,7.5,7.5,7.5h67.401h67.402h67.401  c4.143,0,7.5-3.358,7.5-7.5v-67.401V74.901V7.5C217.205,3.358,213.848,0,209.705,0z M202.205,67.401h-52.401V15h52.401V67.401z   M202.205,134.804h-52.401V82.401h52.401V134.804z M15,82.401h52.401v52.402H15V82.401z M82.401,82.401h52.402v52.402H82.401V82.401  z M134.804,15v52.401H82.401V15H134.804z M67.401,15v52.401H15V15H67.401z M15,149.804h52.401v52.401H15V149.804z M82.401,202.205  v-52.401h52.402v52.401H82.401z M149.804,202.205v-52.401h52.401v52.401H149.804z" fill="#19110b" data-original="#000000" style="" class=""/>
<g xmlns="http://www.w3.org/2000/svg">
</g>
<g xmlns="http://www.w3.org/2000/svg">
</g>
<g xmlns="http://www.w3.org/2000/svg">
</g>
<g xmlns="http://www.w3.org/2000/svg">
</g>
<g xmlns="http://www.w3.org/2000/svg">
</g>
<g xmlns="http://www.w3.org/2000/svg">
</g>
<g xmlns="http://www.w3.org/2000/svg">
</g>
<g xmlns="http://www.w3.org/2000/svg">
</g>
<g xmlns="http://www.w3.org/2000/svg">
</g>
<g xmlns="http://www.w3.org/2000/svg">
</g>
<g xmlns="http://www.w3.org/2000/svg">
</g>
<g xmlns="http://www.w3.org/2000/svg">
</g>
<g xmlns="http://www.w3.org/2000/svg">
</g>
<g xmlns="http://www.w3.org/2000/svg">
</g>
<g xmlns="http://www.w3.org/2000/svg">
</g>
</g></svg>
